<?xml version="1.0" encoding="utf-8"?>
<!-- Generator: Adobe Illustrator 24.3.0, SVG Export Plug-In . SVG Version: 6.00 Build 0)  -->
<svg version="1.1" id="Layer_1" xmlns="http://www.w3.org/2000/svg" xmlns:xlink="http://www.w3.org/1999/xlink" x="0px" y="0px"
	 viewBox="0 0 500 148.24" style="enable-background:new 0 0 500 148.24;" xml:space="preserve">
<style type="text/css">
	.st0{fill-rule:evenodd;clip-rule:evenodd;fill:url(#SVGID_1_);}
	.st1{fill-rule:evenodd;clip-rule:evenodd;fill:url(#SVGID_2_);}
	.st2{fill-rule:evenodd;clip-rule:evenodd;fill:url(#SVGID_3_);}
	.st3{fill-rule:evenodd;clip-rule:evenodd;fill:url(#SVGID_4_);}
	.st4{fill-rule:evenodd;clip-rule:evenodd;fill:url(#SVGID_5_);}
	.st5{fill-rule:evenodd;clip-rule:evenodd;fill:url(#SVGID_6_);}
	.st6{fill:#10203A;}
</style>
<g>
	<g>
		<linearGradient id="SVGID_1_" gradientUnits="userSpaceOnUse" x1="78.9337" y1="142.5532" x2="85.4811" y2="-130.0571">
			<stop  offset="0" style="stop-color:#22B573"/>
			<stop  offset="1" style="stop-color:#FAC032"/>
		</linearGradient>
		<path class="st0" d="M83.16,100.95c1.01,5.74,1.35,11.56,1.06,17.34c-5.28,0.39-10.57-0.13-15.64-1.48
			c-6.27-1.68-12.2-4.65-17.33-8.8c-1.66,3.13-4.19,5.85-7.48,7.74c-1.58,0.91-3.23,1.57-4.91,2.01
			c7.41,6.71,16.27,11.45,25.72,13.98c15.37,4.12,32.31,2.4,47.11-6.14c14.8-8.54,24.75-22.36,28.87-37.73
			c4.12-15.37,2.4-32.31-6.14-47.11c-8.54-14.8-22.36-24.75-37.73-28.87c-15.37-4.12-32.31-2.4-47.11,6.14
			c-14.8,8.54-24.75,22.36-28.87,37.73c-2.53,9.45-2.86,19.5-0.75,29.27c1.22-1.24,2.62-2.34,4.2-3.25c3.29-1.9,6.9-2.73,10.44-2.6
			c-1.02-6.52-0.63-13.14,1.05-19.41c1.36-5.07,3.56-9.91,6.53-14.28c5.15,2.64,10.02,5.84,14.49,9.59
			c2.37-3.41,5.51-6.37,9.34-8.58c0.89-0.51,1.79-0.97,2.71-1.38c-0.13-0.12-0.26-0.23-0.39-0.35c-4.67-4.11-9.69-7.71-14.98-10.77
			c1.26-0.91,2.59-1.77,3.96-2.56c11.1-6.41,23.82-7.69,35.37-4.6c9.18,2.46,17.61,7.68,23.91,15.29l-15.4,8.89
			c1.82,1.8,3.43,3.86,4.77,6.18c1.34,2.32,2.32,4.74,2.96,7.22l15.4-8.89c3.44,9.25,3.75,19.17,1.29,28.35
			c-3.09,11.55-10.57,21.93-21.67,28.33c-1.38,0.79-2.78,1.51-4.2,2.15c0-6.11-0.61-12.26-1.84-18.36
			c-0.03-0.17-0.07-0.34-0.11-0.51c-0.81,0.59-1.67,1.14-2.55,1.66C91.43,99.36,87.3,100.6,83.16,100.95"/>
		<linearGradient id="SVGID_2_" gradientUnits="userSpaceOnUse" x1="30.6295" y1="141.3931" x2="37.3382" y2="-137.9321">
			<stop  offset="0" style="stop-color:#22B573"/>
			<stop  offset="1" style="stop-color:#FAC032"/>
		</linearGradient>
		<path class="st1" d="M27.43,120.77c0.54-2.03,2.63-3.23,4.66-2.69c2.03,0.54,3.23,2.63,2.69,4.66c-0.54,2.03-2.63,3.23-4.66,2.69
			C28.09,124.89,26.88,122.8,27.43,120.77z"/>
		<linearGradient id="SVGID_3_" gradientUnits="userSpaceOnUse" x1="8.7206" y1="140.8669" x2="15.4293" y2="-138.4583">
			<stop  offset="0" style="stop-color:#22B573"/>
			<stop  offset="1" style="stop-color:#FAC032"/>
		</linearGradient>
		<path class="st2" d="M3.22,108.16c0.92-3.45,4.47-5.5,7.92-4.57c3.45,0.92,5.5,4.47,4.57,7.92c-0.92,3.45-4.47,5.5-7.92,4.57
			C4.34,115.15,2.3,111.6,3.22,108.16z"/>
		<linearGradient id="SVGID_4_" gradientUnits="userSpaceOnUse" x1="55.2209" y1="141.9837" x2="61.9296" y2="-137.3415">
			<stop  offset="0" style="stop-color:#22B573"/>
			<stop  offset="1" style="stop-color:#FAC032"/>
		</linearGradient>
		<path class="st3" d="M53.74,100.74c0.36-1.36,1.76-2.16,3.12-1.8c1.36,0.36,2.16,1.76,1.8,3.12c-0.36,1.36-1.76,2.16-3.12,1.8
			C54.18,103.49,53.37,102.1,53.74,100.74z"/>
		<linearGradient id="SVGID_5_" gradientUnits="userSpaceOnUse" x1="33.3386" y1="124.5219" x2="36.1498" y2="7.4747">
			<stop  offset="0" style="stop-color:#22B573"/>
			<stop  offset="1" style="stop-color:#FAC032"/>
		</linearGradient>
		<path class="st4" d="M47.49,98.81c0,1.85-0.35,3.61-0.99,5.22c-0.17,0.29-0.32,0.59-0.47,0.89c-1.17,2.3-2.99,4.26-5.3,5.59
			c-6.46,3.73-14.79,1.49-18.52-4.96c-0.91-1.59-1.47-3.29-1.69-5.01c-0.03-0.26-0.06-0.52-0.07-0.78
			c-0.02-0.31-0.03-0.63-0.03-0.94c0-0.33,0.01-0.65,0.03-0.98c0.32-4.35,2.69-8.48,6.73-10.81c2.35-1.35,4.96-1.92,7.49-1.78
			c0.8,0.04,1.59,0.05,2.39,0C43.04,86.68,47.49,92.21,47.49,98.81z"/>
		<linearGradient id="SVGID_6_" gradientUnits="userSpaceOnUse" x1="79.1755" y1="115.8888" x2="83.9695" y2="-83.7171">
			<stop  offset="0" style="stop-color:#22B573"/>
			<stop  offset="1" style="stop-color:#FAC032"/>
		</linearGradient>
		<path class="st5" d="M92.22,91.88c-6.99,4.04-16.16,4.33-23.25,0.36c-8.48-4.76-13.31-15.25-11.4-24.79
			c1.9-9.53,10.39-17.37,20.05-18.5c21.73-2.55,34.53,25.27,18.45,40.1C94.89,90.14,93.6,91.08,92.22,91.88z"/>
	</g>
	<g>
		<path class="st6" d="M300.14,95.2c2.19-14.55,4.36-28.92,6.54-43.39c0.49-0.05,0.92-0.13,1.36-0.13
			c7.02-0.01,14.05-0.07,21.07,0.04c2.02,0.03,4.09,0.39,6.05,0.92c3.8,1.02,6.53,3.37,7.23,7.39c0.72,4.14-0.73,7.67-3.88,10.41
			c-1.1,0.95-2.44,1.62-3.67,2.41c0.03,0.03,0.09,0.17,0.18,0.2c7.7,1.93,8.44,11.59,3.45,16.8c-2.94,3.07-6.68,4.66-10.81,4.95
			c-5.17,0.36-10.37,0.33-15.56,0.4C308.17,95.25,304.24,95.2,300.14,95.2z M313.24,86.21c3.81,0,7.39,0.06,10.97-0.04
			c1.04-0.03,2.13-0.41,3.09-0.85c2.07-0.95,3.12-2.89,2.76-4.8c-0.34-1.83-1.94-3.11-4.31-3.18c-3.25-0.1-6.5-0.06-9.75-0.06
			c-0.49,0-0.98,0.08-1.51,0.13C314.07,80.37,313.67,83.19,313.24,86.21z M315.82,69.2c3.44,0,6.73,0.15,10-0.08
			c1.19-0.09,2.45-0.92,3.42-1.72c1.27-1.05,1.96-2.54,1.4-4.27c-0.57-1.76-2-2.46-3.68-2.53c-2.95-0.12-5.92-0.13-8.87-0.11
			c-0.39,0-1.06,0.39-1.11,0.68C316.52,63.84,316.18,66.54,315.82,69.2z"/>
		<path class="st6" d="M211.46,67.33c-4.05,0-7.97,0-12.02,0c-1.51-4.76-5.15-6.5-9.84-6.45c-5.47,0.05-9.68,2.43-12.23,7.34
			c-1.63,3.13-2.11,6.52-1.37,9.99c1.22,5.75,6.3,8.81,12.39,7.58c3.74-0.76,6.62-2.86,8.02-5.99c-3.29,0-6.5,0-10,0
			c0.43-2.95,0.83-5.68,1.24-8.48c7.89,0,15.69,0,23.61,0c-1.57,9.46-5.14,17.56-14.13,22.04c-6.48,3.23-13.38,3.79-20.34,1.81
			c-8.78-2.5-13.7-10.53-13.07-20.06c0.96-14.76,12.28-24.31,26.57-24.57c4.64-0.08,9.11,0.58,13.17,3
			C208.14,56.35,211.25,61.68,211.46,67.33z"/>
		<path class="st6" d="M428.35,47.09c3.77,0,7.4,0,11.25,0c-1.01,6.76-2.02,13.45-3.06,20.42c3.23-2.8,6.79-4,10.85-3.86
			c5.79,0.2,9.99,4.19,9.96,10.01c-0.02,3.23-0.59,6.46-1.02,9.68c-0.48,3.56-1.06,7.11-1.67,10.65c-0.07,0.44-0.54,1.15-0.84,1.16
			c-3.47,0.08-6.94,0.05-10.56,0.05c0.32-2.33,0.61-4.46,0.92-6.6c0.46-3.1,0.97-6.2,1.42-9.31c0.47-3.29-0.58-5.4-2.89-5.96
			c-3.14-0.75-6.32,0.69-7.25,3.64c-0.71,2.26-0.99,4.67-1.37,7.03c-0.6,3.66-1.12,7.33-1.68,11.09c-3.77,0-7.45,0-11.27,0
			C423.54,79.07,425.94,63.12,428.35,47.09z"/>
		<path class="st6" d="M241.27,67.3c0.23-0.91,0.42-1.67,0.64-2.51c3.56,0,7.14,0,10.78,0c-1.55,10.17-3.09,20.24-4.63,30.32
			c-3.66,0-7.18,0-10.72,0c0-0.77,0-1.45,0-2.1c-1.92,0.88-3.77,1.99-5.77,2.6c-9.13,2.8-16.93-2.86-17.26-12.39
			c-0.34-9.99,5.95-18.08,15.11-19.42C234.42,63.07,237.58,63.97,241.27,67.3z M231.17,87.68c5.05,0.14,8.74-4.65,7.97-10.32
			c-0.54-3.95-3.06-5.69-7.01-5.12c-4.55,0.66-7.62,5.34-6.82,10.42C225.81,85.89,227.93,87.7,231.17,87.68z"/>
		<path class="st6" d="M476.84,96.57c-2.32-0.5-4.76-0.72-6.95-1.56c-6.31-2.41-9.46-8.57-8.25-15.56
			c1.57-9.03,8.43-15.23,17.69-15.68c2.75-0.14,5.63,0.06,8.28,0.75c5.81,1.51,9.29,6.31,9.5,12.37
			c0.36,10.46-7.46,18.72-18.31,19.32c-0.63,0.03-1.26,0-1.88,0C476.88,96.32,476.86,96.45,476.84,96.57z M480.29,72.59
			c-4.86,0.01-8.4,3.6-8.36,8.49c0.03,3.76,2.5,6.22,6.25,6.23c4.83,0.01,8.43-3.6,8.45-8.45C486.63,74.99,484.2,72.58,480.29,72.59
			z"/>
		<path class="st6" d="M356.36,82.87c0.14,3.98,4.73,6.84,9.54,4.26c2.05-1.1,3.97-1.41,6.14-1.36c2.05,0.05,4.09,0.01,6.52,0.01
			c-0.54,1.03-0.87,1.85-1.36,2.55c-3.53,5.05-8.62,7.28-14.56,7.84c-3.16,0.3-6.27-0.04-9.21-1.39c-4.36-2.01-6.81-5.49-7.43-10.16
			c-1.45-10.91,6.41-20.3,17.41-20.93c3.51-0.2,6.96-0.06,10.18,1.62c3.88,2.02,5.95,5.3,6.3,9.55c0.18,2.13-0.23,4.31-0.33,6.47
			c-0.05,1.17-0.61,1.49-1.75,1.48c-6.63-0.05-13.25-0.03-19.88-0.02C357.44,82.81,356.93,82.85,356.36,82.87z M369.94,76.99
			c0.19-3.13-1.39-5.12-4.22-5.45c-4-0.46-7.68,1.91-8.33,5.45C361.53,76.99,365.67,76.99,369.94,76.99z"/>
		<path class="st6" d="M417.57,82.84c-0.81,3.48-2.42,6.28-4.93,8.44c-6.02,5.18-12.98,6.29-20.35,3.79
			c-6.28-2.13-9.34-8-8.46-15.11c1.12-9.1,8.4-15.71,17.92-16.26c4.17-0.24,8.24,0.02,11.81,2.51c3.64,2.54,5.08,6.13,4.85,10.64
			c-3.35,0-6.62,0-9.91,0c-1.11-3.28-2.52-4.45-5.52-4.56c-3.52-0.13-6.78,1.89-8.01,5.05c-0.35,0.89-0.6,1.86-0.68,2.81
			c-0.31,3.58,1.09,6.09,3.82,7.07c3.03,1.09,6.84-0.13,8.55-2.99c0.71-1.19,1.5-1.45,2.73-1.42
			C412.07,82.89,414.74,82.84,417.57,82.84z"/>
		<path class="st6" d="M266.09,95.12c-3.74,0-7.38,0-11.17,0c0.8-5.4,1.59-10.69,2.38-15.98c0.65-4.34,1.34-8.68,1.92-13.03
			c0.14-1.08,0.5-1.45,1.59-1.43c3.08,0.06,6.15,0.02,9.43,0.02c-0.07,1.05-0.13,1.96-0.22,3.27c3.3-3.81,7.14-5.03,11.92-3.93
			c-0.48,3.34-0.95,6.59-1.45,10.04c-0.78-0.06-1.5-0.12-2.22-0.18c-5.38-0.47-9.07,2.22-10.06,7.56c-0.72,3.92-1.2,7.89-1.79,11.84
			C266.33,93.89,266.2,94.5,266.09,95.12z"/>
		<path class="st6" d="M297.88,64.79c-1.55,10.29-3.06,20.3-4.57,30.34c-3.79,0-7.42,0-11.26,0c1.53-10.15,3.04-20.21,4.56-30.34
			C290.4,64.79,294.07,64.79,297.88,64.79z"/>
		<path class="st6" d="M287.69,56.8c0.51-3.38,0.98-6.52,1.46-9.72c3.8,0,7.48,0,11.43,0c-0.46,3.1-0.88,6.07-1.39,9.03
			c-0.05,0.28-0.63,0.66-0.97,0.66C294.81,56.82,291.39,56.8,287.69,56.8z"/>
	</g>
</g>
<g>
	<path class="st6" d="M217.37,768.76c0.8-5.29,1.58-10.5,2.38-15.76c0.18-0.02,0.34-0.05,0.49-0.05c2.55,0,5.1-0.03,7.65,0.01
		c0.74,0.01,1.49,0.14,2.2,0.33c1.38,0.37,2.37,1.23,2.63,2.68c0.26,1.5-0.26,2.79-1.41,3.78c-0.4,0.35-0.89,0.59-1.33,0.88
		c0.01,0.01,0.03,0.06,0.06,0.07c2.8,0.7,3.07,4.21,1.25,6.1c-1.07,1.11-2.43,1.69-3.93,1.8c-1.88,0.13-3.77,0.12-5.65,0.15
		C220.28,768.77,218.85,768.76,217.37,768.76z M222.12,765.49c1.38,0,2.68,0.02,3.99-0.01c0.38-0.01,0.77-0.15,1.12-0.31
		c0.75-0.35,1.13-1.05,1-1.74c-0.12-0.67-0.71-1.13-1.57-1.16c-1.18-0.04-2.36-0.02-3.54-0.02c-0.18,0-0.36,0.03-0.55,0.05
		C222.42,763.37,222.28,764.39,222.12,765.49z M223.06,759.31c1.25,0,2.44,0.06,3.63-0.03c0.43-0.03,0.89-0.33,1.24-0.63
		c0.46-0.38,0.71-0.92,0.51-1.55c-0.21-0.64-0.73-0.89-1.34-0.92c-1.07-0.05-2.15-0.05-3.22-0.04c-0.14,0-0.39,0.14-0.4,0.25
		C223.31,757.36,223.19,758.34,223.06,759.31z"/>
	<path class="st6" d="M185.15,758.63c-1.47,0-2.9,0-4.37,0c-0.55-1.73-1.87-2.36-3.57-2.34c-1.99,0.02-3.52,0.88-4.44,2.67
		c-0.59,1.14-0.76,2.37-0.5,3.63c0.44,2.09,2.29,3.2,4.5,2.75c1.36-0.28,2.41-1.04,2.91-2.17c-1.2,0-2.36,0-3.63,0
		c0.16-1.07,0.3-2.06,0.45-3.08c2.87,0,5.7,0,8.58,0c-0.57,3.43-1.87,6.38-5.13,8.01c-2.35,1.17-4.86,1.38-7.39,0.66
		c-3.19-0.91-4.97-3.83-4.75-7.29c0.35-5.36,4.46-8.83,9.65-8.92c1.69-0.03,3.31,0.21,4.78,1.09
		C183.94,754.64,185.08,756.58,185.15,758.63z"/>
	<path class="st6" d="M263.94,751.28c1.37,0,2.69,0,4.09,0c-0.37,2.46-0.73,4.89-1.11,7.42c1.17-1.02,2.47-1.45,3.94-1.4
		c2.1,0.07,3.63,1.52,3.62,3.63c-0.01,1.17-0.21,2.35-0.37,3.52c-0.17,1.29-0.39,2.58-0.61,3.87c-0.03,0.16-0.2,0.42-0.31,0.42
		c-1.26,0.03-2.52,0.02-3.84,0.02c0.12-0.84,0.22-1.62,0.34-2.4c0.17-1.13,0.35-2.25,0.51-3.38c0.17-1.19-0.21-1.96-1.05-2.16
		c-1.14-0.27-2.3,0.25-2.63,1.32c-0.26,0.82-0.36,1.7-0.5,2.55c-0.22,1.33-0.41,2.66-0.61,4.03c-1.37,0-2.71,0-4.09,0
		C262.19,762.9,263.06,757.1,263.94,751.28z"/>
	<path class="st6" d="M195.98,758.62c0.08-0.33,0.15-0.61,0.23-0.91c1.29,0,2.59,0,3.92,0c-0.56,3.69-1.12,7.35-1.68,11.01
		c-1.33,0-2.61,0-3.9,0c0-0.28,0-0.53,0-0.76c-0.7,0.32-1.37,0.72-2.09,0.94c-3.31,1.02-6.15-1.04-6.27-4.5
		c-0.12-3.63,2.16-6.57,5.49-7.05C193.49,757.08,194.64,757.41,195.98,758.62z M192.31,766.02c1.83,0.05,3.18-1.69,2.89-3.75
		c-0.2-1.43-1.11-2.07-2.55-1.86c-1.65,0.24-2.77,1.94-2.48,3.78C190.37,765.37,191.13,766.03,192.31,766.02z"/>
	<path class="st6" d="M281.55,769.25c-0.84-0.18-1.73-0.26-2.53-0.57c-2.29-0.88-3.44-3.11-3-5.65c0.57-3.28,3.06-5.53,6.43-5.7
		c1-0.05,2.05,0.02,3.01,0.27c2.11,0.55,3.37,2.29,3.45,4.49c0.13,3.8-2.71,6.8-6.65,7.02c-0.23,0.01-0.46,0-0.68,0
		C281.56,769.16,281.56,769.21,281.55,769.25z M282.8,760.54c-1.77,0-3.05,1.31-3.04,3.08c0.01,1.37,0.91,2.26,2.27,2.26
		c1.75,0,3.06-1.31,3.07-3.07C285.11,761.41,284.22,760.54,282.8,760.54z"/>
	<path class="st6" d="M237.79,764.28c0.05,1.45,1.72,2.48,3.46,1.55c0.75-0.4,1.44-0.51,2.23-0.49c0.74,0.02,1.49,0,2.37,0
		c-0.2,0.37-0.32,0.67-0.49,0.93c-1.28,1.84-3.13,2.65-5.29,2.85c-1.15,0.11-2.28-0.01-3.34-0.5c-1.59-0.73-2.47-1.99-2.7-3.69
		c-0.53-3.96,2.33-7.37,6.32-7.6c1.27-0.07,2.53-0.02,3.7,0.59c1.41,0.73,2.16,1.93,2.29,3.47c0.06,0.77-0.08,1.57-0.12,2.35
		c-0.02,0.43-0.22,0.54-0.63,0.54c-2.41-0.02-4.81-0.01-7.22-0.01C238.18,764.25,237.99,764.27,237.79,764.28z M242.72,762.14
		c0.07-1.14-0.5-1.86-1.53-1.98c-1.45-0.17-2.79,0.69-3.03,1.98C239.66,762.14,241.17,762.14,242.72,762.14z"/>
	<path class="st6" d="M260.02,764.27c-0.29,1.27-0.88,2.28-1.79,3.07c-2.19,1.88-4.71,2.29-7.39,1.38
		c-2.28-0.77-3.39-2.91-3.07-5.49c0.41-3.31,3.05-5.71,6.51-5.91c1.51-0.09,2.99,0.01,4.29,0.91c1.32,0.92,1.85,2.23,1.76,3.86
		c-1.22,0-2.4,0-3.6,0c-0.4-1.19-0.91-1.61-2.01-1.65c-1.28-0.05-2.46,0.69-2.91,1.84c-0.13,0.32-0.22,0.67-0.25,1.02
		c-0.11,1.3,0.4,2.21,1.39,2.57c1.1,0.39,2.49-0.05,3.11-1.09c0.26-0.43,0.54-0.53,0.99-0.51
		C258.02,764.28,258.99,764.27,260.02,764.27z"/>
	<path class="st6" d="M204.99,768.72c-1.36,0-2.68,0-4.06,0c0.29-1.96,0.58-3.88,0.86-5.81c0.24-1.58,0.49-3.15,0.7-4.73
		c0.05-0.39,0.18-0.53,0.58-0.52c1.12,0.02,2.24,0.01,3.42,0.01c-0.03,0.38-0.05,0.71-0.08,1.19c1.2-1.38,2.6-1.83,4.33-1.43
		c-0.18,1.21-0.35,2.39-0.53,3.65c-0.28-0.02-0.54-0.04-0.81-0.07c-1.96-0.17-3.3,0.8-3.65,2.75c-0.26,1.43-0.43,2.87-0.65,4.3
		C205.08,768.28,205.04,768.5,204.99,768.72z"/>
	<path class="st6" d="M216.54,757.71c-0.56,3.74-1.11,7.37-1.66,11.02c-1.38,0-2.7,0-4.09,0c0.55-3.69,1.1-7.34,1.66-11.02
		C213.83,757.71,215.16,757.71,216.54,757.71z"/>
	<path class="st6" d="M212.84,754.81c0.18-1.23,0.36-2.37,0.53-3.53c1.38,0,2.72,0,4.15,0c-0.17,1.12-0.32,2.2-0.5,3.28
		c-0.02,0.1-0.23,0.24-0.35,0.24C215.43,754.81,214.19,754.81,212.84,754.81z"/>
</g>
<rect x="161.24" y="459.41" class="st6" width="243.76" height="97.41"/>
</svg>
